<svg xmlns="http://www.w3.org/2000/svg" xmlns:xlink="http://www.w3.org/1999/xlink" width="64" zoomAndPan="magnify" viewBox="0 0 48 48" height="64" preserveAspectRatio="xMidYMid meet" version="1.0"><defs><clipPath id="a27257eea4"><path d="M 0.488281 0 L 47.507812 0 L 47.507812 47 L 0.488281 47 Z M 0.488281 0 " clip-rule="nonzero"/></clipPath></defs><path fill="#ffffff" d="M 16.699219 35.972656 C 16.699219 36.105469 16.675781 36.234375 16.625 36.355469 C 16.574219 36.480469 16.5 36.585938 16.40625 36.683594 C 16.3125 36.777344 16.203125 36.847656 16.082031 36.898438 C 15.957031 36.949219 15.828125 36.976562 15.695312 36.976562 C 15.5625 36.976562 15.4375 36.949219 15.3125 36.898438 C 15.191406 36.847656 15.082031 36.777344 14.988281 36.683594 C 14.894531 36.585938 14.820312 36.480469 14.769531 36.355469 C 14.71875 36.234375 14.691406 36.105469 14.691406 35.972656 C 14.691406 35.839844 14.71875 35.710938 14.769531 35.589844 C 14.820312 35.464844 14.894531 35.355469 14.988281 35.261719 C 15.082031 35.167969 15.191406 35.09375 15.3125 35.042969 C 15.4375 34.992188 15.5625 34.96875 15.695312 34.96875 C 15.828125 34.96875 15.957031 34.992188 16.082031 35.042969 C 16.203125 35.09375 16.3125 35.167969 16.40625 35.261719 C 16.5 35.355469 16.574219 35.464844 16.625 35.585938 C 16.675781 35.710938 16.699219 35.839844 16.699219 35.972656 Z M 16.699219 35.972656 " fill-opacity="1" fill-rule="nonzero"/><path fill="#ffffff" d="M 33.175781 35.972656 C 33.175781 36.105469 33.152344 36.234375 33.101562 36.355469 C 33.046875 36.480469 32.976562 36.585938 32.882812 36.683594 C 32.789062 36.777344 32.679688 36.847656 32.554688 36.898438 C 32.433594 36.949219 32.304688 36.976562 32.171875 36.976562 C 32.039062 36.976562 31.910156 36.949219 31.789062 36.898438 C 31.664062 36.847656 31.554688 36.777344 31.460938 36.683594 C 31.367188 36.585938 31.296875 36.480469 31.246094 36.355469 C 31.195312 36.234375 31.167969 36.105469 31.167969 35.972656 C 31.167969 35.839844 31.195312 35.710938 31.246094 35.589844 C 31.296875 35.464844 31.367188 35.355469 31.460938 35.261719 C 31.554688 35.167969 31.664062 35.09375 31.789062 35.042969 C 31.910156 34.992188 32.039062 34.96875 32.171875 34.96875 C 32.304688 34.96875 32.433594 34.992188 32.554688 35.042969 C 32.679688 35.09375 32.789062 35.167969 32.882812 35.261719 C 32.976562 35.355469 33.046875 35.464844 33.101562 35.585938 C 33.152344 35.710938 33.175781 35.839844 33.175781 35.972656 Z M 33.175781 35.972656 " fill-opacity="1" fill-rule="nonzero"/><g clip-path="url(#a27257eea4)"><path fill="#ffffff" d="M 23.996094 -0.015625 C 11.015625 -0.015625 0.492188 10.507812 0.492188 23.488281 C 0.492188 36.46875 11.015625 46.992188 23.996094 46.992188 C 36.976562 46.992188 47.5 36.46875 47.5 23.488281 C 47.5 10.507812 36.976562 -0.015625 23.996094 -0.015625 Z M 17.574219 32.53125 L 32.171875 32.53125 C 34.070312 32.53125 35.613281 34.074219 35.613281 35.972656 C 35.613281 37.871094 34.070312 39.414062 32.171875 39.414062 C 30.273438 39.414062 28.730469 37.871094 28.730469 35.972656 C 28.730469 35.621094 28.78125 35.285156 28.878906 34.96875 L 18.988281 34.96875 C 19.085938 35.285156 19.140625 35.621094 19.140625 35.972656 C 19.140625 37.871094 17.59375 39.414062 15.695312 39.414062 C 13.796875 39.414062 12.253906 37.871094 12.253906 35.972656 C 12.253906 34.277344 13.488281 32.867188 15.105469 32.585938 L 14.5 29.25 L 14.492188 29.21875 L 11.28125 13.335938 L 8.335938 13.355469 L 8.316406 10.917969 L 13.277344 10.882812 L 14.476562 16.820312 L 36.699219 19.484375 L 33.878906 30.242188 L 17.15625 30.242188 Z M 17.574219 32.53125 " fill-opacity="1" fill-rule="nonzero"/></g></svg>